<?xml version="1.0" encoding="utf-8"?>
<!-- Generator: Adobe Illustrator 26.5.0, SVG Export Plug-In . SVG Version: 6.00 Build 0)  -->
<svg version="1.1" id="Capa_1" xmlns="http://www.w3.org/2000/svg" xmlns:xlink="http://www.w3.org/1999/xlink" x="0px" y="0px"
	 viewBox="0 0 612 792" style="enable-background:new 0 0 612 792;" xml:space="preserve">
<style type="text/css">
	.st0{fill:#515151;}
	.st1{fill:#4E692B;}
</style>
<g>
	<path class="st0" d="M114.42,479.99c-1.52-2.16-2.99-4.37-4.46-6.58l-0.09,0.05c0.05,1.98,0.09,4.51,0.09,7.22v18.77h-4.23v-33.31
		h4.23l11.82,16.93l11.82-16.93h4.19v33.31h-4.37v-18.77c0-2.72,0.05-5.25,0.09-7.22l-0.09-0.05c-1.47,2.21-2.94,4.42-4.46,6.58
		l-7.27,10.4L114.42,479.99z"/>
	<path class="st0" d="M178.45,466.14h4.19l13.76,33.31h-4.69l-3.73-9.29h-15l-3.77,9.29h-4.46L178.45,466.14z M174.5,486.34h11.96
		l-2.71-6.9c-1.06-2.67-2.16-5.52-3.17-8.24h-0.09c-1.01,2.72-2.12,5.52-3.27,8.37L174.5,486.34z"/>
	<path class="st0" d="M223.35,466.14h4.37v33.31h-4.37V466.14z"/>
	<path class="st0" d="M258.17,499.45v-33.31h4.14l13.94,18.5c1.93,2.53,3.87,5.15,5.75,7.78l0.09-0.05
		c-0.05-2.9-0.09-6.26-0.09-9.48v-16.75h4.23v33.31h-4.14l-13.94-18.5c-1.93-2.53-3.87-5.15-5.75-7.78l-0.09,0.05
		c0.05,2.9,0.09,6.26,0.09,9.48v16.75H258.17z"/>
	<path class="st0" d="M316,466.14h9.89c8.14,0,15.28,2.26,15.28,10.63c0,7.68-5.61,10.77-15.55,10.77h-2.3v11.92H316V466.14z
		 M325.98,481.6c6.03,0,7.87-1.33,7.87-4.46c0-3.68-2.53-4.6-8.05-4.6h-2.48v9.06H325.98z"/>
	<path class="st0" d="M377.23,466.14h7.09l13.53,33.31h-7.82l-2.67-6.99h-13.43l-2.71,6.99h-7.5L377.23,466.14z M376.17,486.7h8.97
		l-1.38-3.73c-0.97-2.62-2.16-5.94-3.04-8.47h-0.09c-0.87,2.53-2.07,5.84-3.13,8.65L376.17,486.7z"/>
	<path class="st0" d="M439.29,465.63c3.36,0,6.62,0.78,9.25,2.07v7.41c-2.44-1.66-5.8-2.9-9.2-2.9c-6.44,0-10.86,4.51-10.86,10.54
		c0,5.94,4.28,10.63,11.13,10.63c3.45,0,6.67-1.2,9.43-3.08v7.45c-2.85,1.52-6.44,2.21-9.75,2.21c-10.72,0-18.13-7.41-18.13-17.12
		C421.16,473.18,428.57,465.63,439.29,465.63z"/>
	<path class="st0" d="M476.92,466.14h7.31v14.72l0.09,0.05l11.64-14.77h8.7l-12.61,15.46l13.66,17.85h-9.02l-12.38-16.65l-0.09,0.04
		v16.61h-7.31V466.14z"/>
</g>
<g>
	<path class="st1" d="M383.06,300.46c-5.61-5.61-13.07-8.7-21.01-8.7c-7.93,0-15.39,3.09-21.01,8.7
		c-12.03,12.03-24.05,24.05-36.08,36.08c-12.03-12.03-24.05-24.05-36.08-36.08c-5.61-5.61-13.07-8.7-21-8.7
		c-7.93,0-15.39,3.09-21,8.7c-15,15-30,30-45,45c15,15,30,30,45,45c5.61,5.61,13.07,8.7,21,8.7c7.93,0,15.39-3.09,21-8.7
		c5.91-5.91,11.81-11.81,17.72-17.72c-9.41-2.24-16.04-1.44-19.9,2.42c-2.19,2.19-4.37,4.37-6.56,6.56
		c-3.28,3.28-7.63,5.08-12.27,5.08c-4.63,0-8.99-1.8-12.26-5.08c-12.09-12.09-24.17-24.17-36.26-36.26
		c12.09-12.09,24.17-24.17,36.26-36.26c3.28-3.28,7.63-5.08,12.26-5.08c4.63,0,8.99,1.8,12.27,5.08
		c12.03,12.03,24.05,24.05,36.08,36.08l-0.06,0.06c8.19,8.27,16.38,16.55,24.57,24.82c6.77,6.77,13.53,13.53,20.3,20.3
		c5.61,5.61,13.07,8.7,21.01,8.7c7.93,0,15.39-3.09,21.01-8.7c15-15,30-30,44.99-45C413.06,330.46,398.06,315.46,383.06,300.46z
		 M374.32,381.72c-3.28,3.28-7.63,5.08-12.27,5.08c-4.63,0-8.99-1.8-12.27-5.08c-10.02-10.02-20.04-20.04-30.06-30.06
		c26.25,2.49,63.03-5.73,63.03-5.73c-29.34,6.64-55.35-2.42-63.58-5.8c10.2-10.31,20.41-20.61,30.61-30.92
		c3.28-3.28,7.63-5.08,12.27-5.08c4.63,0,8.99,1.8,12.27,5.08c12.09,12.09,24.17,24.17,36.26,36.26
		C398.5,357.54,386.41,369.63,374.32,381.72z"/>
</g>
</svg>
